<svg xmlns="http://www.w3.org/2000/svg" width="31.938" height="28.118" viewBox="0 0 31.938 28.118">
    <g id="Group_69754" data-name="Group 69754" transform="translate(-5.256 -8.5)">
        <path id="Path_4886" data-name="Path 4886" d="M19.311,36.618a14.059,14.059,0,1,1,8.375-25.354,1.2,1.2,0,0,1-1.424,1.92,11.741,11.741,0,1,0,4.565,7.538,1.211,1.211,0,1,1,2.393-.371,14.268,14.268,0,0,1,.15,2.208A14.071,14.071,0,0,1,19.311,36.618Z" fill="#059a28"/>
        <path id="Path_4887" data-name="Path 4887" d="M26.674,27.692a1.2,1.2,0,0,1-.844-.353l-5.683-5.683a1.2,1.2,0,0,1,1.687-1.687l4.84,4.834L41.085,10.4a1.2,1.2,0,0,1,1.687,1.687L27.517,27.339A1.2,1.2,0,0,1,26.674,27.692Z" transform="translate(-5.867 -0.646)" fill="#059a28"/>
    </g>
</svg>