<svg xmlns="http://www.w3.org/2000/svg" width="28.881" height="28.881" viewBox="0 0 28.881 28.881">
    <path id="Path_4888" data-name="Path 4888"
        d="M26.44,12a14.44,14.44,0,1,0,14.44,14.44A14.434,14.434,0,0,0,26.44,12Zm0,27.361a12.92,12.92,0,1,1,12.92-12.92A12.91,12.91,0,0,1,26.44,39.361ZM27.5,26.44l4.788-4.788a.752.752,0,0,0-1.064-1.064L26.44,25.376l-4.788-4.788a.752.752,0,0,0-1.064,1.064l4.788,4.788-4.788,4.788a.752.752,0,0,0,1.064,1.064L26.44,27.5l4.788,4.788a.752.752,0,1,0,1.064-1.064Z"
        transform="translate(-12 -12)" fill="red" />
</svg>