<svg xmlns="http://www.w3.org/2000/svg" width="21.171" height="19.451" viewBox="0 0 21.171 19.451">
  <path id="Path_110" data-name="Path 110" d="M24.4,6.543a.5.5,0,0,0-.134.018L19.5,7.844a.5.5,0,0,0,.26.967l3.6-.971L20.1,13.482a4.007,4.007,0,1,0,.866.5l3.26-5.644.96,3.605a.5.5,0,1,0,.967-.258L24.881,6.914a.5.5,0,0,0-.479-.371ZM9,10a3.893,3.893,0,0,0-.5,7.764V22H6.52a.5.5,0,0,0,0,1H8.5v2.494a.5.5,0,1,0,1,0V23h1.973a.5.5,0,0,0,0-1H9.5V17.764A3.893,3.893,0,0,0,9,10Zm0,1a2.908,2.908,0,1,1,0,5.814A2.908,2.908,0,1,1,9,11Zm9.358,3.146a3.056,3.056,0,0,1,1.7.41,2.908,2.908,0,1,1-4.049,1.018,2.877,2.877,0,0,1,2.344-1.428Z" transform="translate(-5 -6.543)"/>
</svg>
