<svg xmlns="http://www.w3.org/2000/svg" width="31.091" height="31.091" viewBox="0 0 31.091 31.091">
    <g id="Group_69753" data-name="Group 69753" transform="translate(-1 -1)">
        <path id="Path_4884" data-name="Path 4884"
            d="M16.546,1a15.489,15.489,0,0,0-5.407.966l.451,1.215a14.306,14.306,0,1,1-4.112,2.38v4.507h1.3V3.591H2.3v1.3H6.263A15.545,15.545,0,1,0,16.546,1Z"
            transform="translate(0)" fill="#2a2ac0" />
        <path id="Path_4885" data-name="Path 4885"
            d="M18.3,26.659H17v1.3H27.364v-1.3h-1.3V24.448L23.1,21.477l2.971-2.971V16.3h1.3V15H17v1.3h1.3v2.211l2.971,2.971L18.3,24.448Zm1.3-8.689V16.3h5.182v1.675l-2.591,2.591Zm2.591,4.423,2.591,2.591v1.675H19.591V24.984ZM18.3,30.546h1.3v1.3H18.3Zm3.239,0h1.3v1.3h-1.3Zm3.239,0h1.3v1.3h-1.3Z"
            transform="translate(-5.636 -4.932)" fill="#2a2ac0" />
    </g>
</svg>