<svg xmlns="http://www.w3.org/2000/svg" width="280.979" height="259.5" viewBox="0 0 280.979 259.5">
    <g id="Layer_2" data-name="Layer 2" transform="translate(0.03)">
        <g id="Layer_1" data-name="Layer 1" transform="translate(-0.03)">
            <path id="Path_24975" data-name="Path 24975" d="M0,0H48.949V34.469H0Z"
                transform="translate(96.133 75.507) rotate(-164.89)" fill="none" stroke="#00406f"
                stroke-linecap="round" stroke-linejoin="round" stroke-width="1" />
            <circle id="Ellipse_6673" data-name="Ellipse 6673" cx="21.891" cy="21.891" r="21.891"
                transform="translate(22.992 30.602)" fill="#86c2e6" />
            <rect id="Rectangle_3420" data-name="Rectangle 3420" width="64.511" height="46.195"
                rx="11" transform="translate(25.701 214.471) rotate(-12.9)" fill="#008ef8" />
            <rect id="Rectangle_3421" data-name="Rectangle 3421" width="53.923" height="35.607"
                rx="8.33" transform="translate(32.047 218.452) rotate(-12.9)" fill="#c1e3f7" />
            <rect id="Rectangle_3422" data-name="Rectangle 3422" width="23.918" height="11.228"
                rx="2" transform="translate(41.456 223.039) rotate(-12.9)" fill="#008ef8" />
            <rect id="Rectangle_3423" data-name="Rectangle 3423" width="29.731" height="8.487"
                rx="2" transform="translate(54.616 236.759) rotate(-12.9)" fill="#008ef8" />
            <rect id="Rectangle_3424" data-name="Rectangle 3424" width="64.511" height="46.195"
                rx="11" transform="translate(181.827 54.365) rotate(-11.4)" fill="#008ef8" />
            <rect id="Rectangle_3425" data-name="Rectangle 3425" width="22.532" height="35.694"
                rx="3.66" transform="translate(218.292 52.091) rotate(-11.4)" fill="#c1e3f7" />
            <rect id="Rectangle_3426" data-name="Rectangle 3426" width="26.237" height="12.584"
                rx="3.66" transform="translate(188.713 58.058) rotate(-11.4)" fill="#c1e3f7" />
            <rect id="Rectangle_3427" data-name="Rectangle 3427" width="26.237" height="4.551"
                rx="2" transform="translate(194.869 88.582) rotate(-11.4)" fill="#c1e3f7" />
            <rect id="Rectangle_3428" data-name="Rectangle 3428" width="11.682" height="11.682"
                rx="3.66" transform="translate(191.877 73.758) rotate(-11.4)" fill="#c1e3f7" />
            <rect id="Rectangle_3429" data-name="Rectangle 3429" width="11.682" height="11.682"
                rx="3.66" transform="translate(205.397 71.034) rotate(-11.4)" fill="#c1e3f7" />
            <path id="Path_24976" data-name="Path 24976"
                d="M214.506,13.59c.342,1.629.566,3.264.746,4.9s.3,3.283.4,4.924.137,3.289.131,4.937-.05,3.3-.218,4.974a49.512,49.512,0,0,1-.752-4.905c-.187-1.641-.3-3.283-.4-4.924s-.137-3.289-.124-4.937a49.006,49.006,0,0,1,.218-4.968Z"
                transform="translate(-81.039 -5.141)" fill="#0850ec" />
            <path id="Path_24977" data-name="Path 24977"
                d="M219.321,28.457a47.2,47.2,0,0,1-4.905.746c-1.635.193-3.277.3-4.918.4s-3.289.143-4.974.131a49.119,49.119,0,0,1-4.974-.218,48.953,48.953,0,0,1,4.905-.752c1.635-.187,3.283-.3,4.924-.4s3.289-.137,4.937-.131S217.667,28.289,219.321,28.457Zm2.624,2.742a22.48,22.48,0,0,1,.659,3.289c.149,1.107.261,2.207.317,3.314s.075,2.213.044,3.326a22.6,22.6,0,0,1-.3,3.345,22.5,22.5,0,0,1-.665-3.289c-.149-1.107-.255-2.207-.311-3.314s-.075-2.22-.044-3.326a22.6,22.6,0,0,1,.3-3.345Z"
                transform="translate(-75.465 -10.682)" fill="#0850ec" />
            <path id="Path_24978" data-name="Path 24978"
                d="M238.744,42.936a22.482,22.482,0,0,1-3.289.659c-1.107.155-2.207.261-3.314.317s-2.22.075-3.326.044a22.6,22.6,0,0,1-3.345-.3,23.358,23.358,0,0,1,3.289-.665c1.1-.149,2.207-.255,3.314-.311s2.213-.075,3.326-.044A22.6,22.6,0,0,1,238.744,42.936Z"
                transform="translate(-85.27 -16.12)" fill="#0850ec" />
            <path id="Path_24979" data-name="Path 24979"
                d="M14.866,299.37c.342,1.629.566,3.264.746,4.9s.3,3.283.4,4.924.137,3.289.131,4.937a49.222,49.222,0,0,1-.224,4.974c-.342-1.635-.566-3.27-.746-4.905s-.3-3.283-.4-4.924-.137-3.289-.124-4.937a47.249,47.249,0,0,1,.218-4.968Z"
                transform="translate(-5.522 -113.242)" fill="#0234c1" />
            <path id="Path_24980" data-name="Path 24980"
                d="M19.71,314.237a47.2,47.2,0,0,1-4.905.746c-1.635.193-3.277.3-4.924.4s-3.289.143-4.937.131A49.1,49.1,0,0,1-.03,315.3a48.957,48.957,0,0,1,4.905-.752c1.635-.187,3.277-.3,4.924-.4s3.289-.137,4.937-.131S18.05,314.069,19.71,314.237ZM22.334,317a22.481,22.481,0,0,1,.659,3.289c.149,1.107.261,2.207.317,3.314s.075,2.213.044,3.326a22.6,22.6,0,0,1-.3,3.345,22.506,22.506,0,0,1-.678-3.289c-.149-1.107-.261-2.207-.317-3.314s-.068-2.213-.037-3.326A22.6,22.6,0,0,1,22.334,317Z"
                transform="translate(0.03 -118.784)" fill="#0234c1" />
            <path id="Path_24981" data-name="Path 24981"
                d="M39.11,301.924a22.732,22.732,0,0,1-3.3.659c-1.1.155-2.2.261-3.308.317s-2.22.075-3.332.044a22.752,22.752,0,0,1-3.345-.3,23.629,23.629,0,0,1,3.3-.665c1.1-.149,2.207-.255,3.314-.311s2.213-.075,3.326-.044a22.6,22.6,0,0,1,3.345.3ZM270.724,257.57c.342,1.629.566,3.27.746,4.905s.3,3.283.4,4.924.137,3.289.131,4.937a49.016,49.016,0,0,1-.224,4.974c-.342-1.629-.566-3.264-.746-4.9s-.3-3.283-.4-4.924-.137-3.289-.124-4.937A49.127,49.127,0,0,1,270.724,257.57Z"
                transform="translate(-9.752 -97.431)" fill="#0234c1" />
            <path id="Path_24982" data-name="Path 24982"
                d="M424.42,272.446c-1.629.342-3.264.566-4.905.746s-3.277.3-4.924.4-3.289.143-4.937.131a49.119,49.119,0,0,1-4.974-.218,48.947,48.947,0,0,1,4.905-.752c1.635-.186,3.277-.3,4.924-.4s3.289-.143,4.937-.131A49.119,49.119,0,0,1,424.42,272.446Zm2.624,2.748a22.727,22.727,0,0,1,.659,3.3c.149,1.1.261,2.207.317,3.314s.075,2.213.044,3.326a22.6,22.6,0,0,1-.3,3.345,22.588,22.588,0,0,1-.665-3.3c-.149-1.1-.261-2.2-.317-3.308s-.068-2.22-.037-3.326a22.761,22.761,0,0,1,.3-3.351Z"
                transform="translate(-153.059 -102.975)" fill="#0234c1" />
            <path id="Path_24983" data-name="Path 24983"
                d="M443.82,286.924a22.564,22.564,0,0,1-3.3.659c-1.1.149-2.2.261-3.308.317s-2.22.075-3.326.044a22.764,22.764,0,0,1-3.351-.3,22.762,22.762,0,0,1,3.3-.665c1.1-.149,2.207-.261,3.314-.317s2.213-.068,3.326-.037a22.6,22.6,0,0,1,3.345.3Z"
                transform="translate(-162.841 -108.413)" fill="#0234c1" />
            <path id="Path_24984" data-name="Path 24984"
                d="M116.237,150.663c.87-9.7,8.511-15.929,8.953-16.246,5-3.954,6.578-2,15.543-7.019,4.029-2.257,7.821-4.421,11.589-8.63,3.563-3.979,6.422-7.175,7.392-12.08.473-2.394.392-4.632,2.213-6.261,1.393-1.243,3.73-1.952,5.415-1.132,2.537,1.243,3.053,5.546,2.369,8.424-.622,2.555-2.039,3.432-1.548,5.142.435,1.536,1.822,1.635,3.189,3.227,2.238,2.611,1.946,6.317,1.865,7.368-.379,4.781-3.55,5.776-3.488,10.613.031,2.07.622,1.977.516,3.911-.174,3.519-2.207,6.105-4.054,8.381-3.109,3.836-4.383,3.451-6.565,6.889-1.784,2.8-1.181,3.444-2.723,5.2-2.885,3.277-7.355,3.73-8.53,3.817-4.582.441-8.238-1.318-11.676-2.978-5.5-2.655-5.6-4.352-8.5-4.5-5.08-.23-7.734,4.93-10.2,3.768C115.634,157.421,116.131,151.826,116.237,150.663ZM87.519,164.54c-8.082-5.39-17.757-3.308-18.291-3.183-6.217,1.43-5.67,3.886-15.2,7.759-4.278,1.735-8.337,3.345-13.977,3.656-5.334.292-9.612.528-14.051-1.778-2.164-1.125-3.861-2.593-6.273-2.182-1.834.317-3.842,1.679-4.265,3.519-.622,2.748,2.425,5.85,5.1,7.113,2.375,1.119,3.954.553,4.974,2,.926,1.3.143,2.443.528,4.508.622,3.382,3.73,5.465,4.588,6.056,3.973,2.692,6.733.839,10.47,3.911,1.592,1.312,1.156,1.71,2.729,2.841,2.854,2.07,6.143,2.1,9.077,2.077,4.93,0,5.428-1.243,9.481-.827,3.3.361,3.42,1.243,5.757,1.125,4.352-.205,7.461-3.426,8.313-4.277,3.208-3.3,4.11-7.256,4.974-10.98,1.362-5.944.093-7.106,1.8-9.444,2.991-4.11,8.7-2.959,9.326-5.6C93.17,168.289,88.507,165.2,87.519,164.54Z"
                transform="translate(-5.799 -37.427)" fill="#88c4e7" />
            <path id="Path_24985" data-name="Path 24985"
                d="M131.871,153.289a19.776,19.776,0,0,1,1.915-4.01,17.408,17.408,0,0,1,2.866-3.432,14.654,14.654,0,0,1,3.73-2.487,30.963,30.963,0,0,1,4.2-1.529,87.789,87.789,0,0,0,8.387-2.792c1.374-.528,2.736-1.1,4.079-1.7s2.686-1.243,4.023-1.865c-1.243.765-2.574,1.461-3.892,2.145s-2.667,1.281-4.029,1.865a77.529,77.529,0,0,1-8.387,2.947,29.092,29.092,0,0,0-4.141,1.442,15.612,15.612,0,0,0-3.656,2.307,19.771,19.771,0,0,0-5.1,7.113Zm37.3-25.765c.777-1.753,1.554-3.475,2.213-5.241.336-.883.622-1.778.939-2.673l.839-2.729a16.371,16.371,0,0,1-.367,2.854,21.14,21.14,0,0,1-.833,2.767A19.02,19.02,0,0,1,169.175,127.524Zm-3.463,19.224c1.561-1.088,3.109-2.151,4.57-3.314.74-.572,1.461-1.169,2.176-1.778l2.12-1.865a16.237,16.237,0,0,1-1.784,2.232,21.348,21.348,0,0,1-2.126,1.915A18.752,18.752,0,0,1,165.711,146.748Zm-9.332,14.1c1.685-.491,3.351-.926,4.974-1.461.827-.261,1.635-.541,2.487-.827l2.456-.9a16.861,16.861,0,0,1-4.725,2.313,17.464,17.464,0,0,1-5.191.87Zm-74.054,16.32a19.709,19.709,0,0,0-8.7-.441,15.662,15.662,0,0,0-4.116,1.38,30.2,30.2,0,0,0-3.73,2.331,76.472,76.472,0,0,1-7.542,4.707c-1.306.7-2.63,1.362-3.979,1.983s-2.711,1.188-4.1,1.7c1.331-.622,2.661-1.281,3.967-1.971s2.605-1.38,3.88-2.126c2.555-1.473,5.017-3.078,7.417-4.8a30.131,30.131,0,0,1,3.824-2.325,14.635,14.635,0,0,1,4.284-1.349,17.365,17.365,0,0,1,4.47-.093,19.729,19.729,0,0,1,4.327,1.007ZM28.11,186.657l2.661,1.051c.883.323,1.772.622,2.673.933,1.791.591,3.618,1.057,5.477,1.548a18.932,18.932,0,0,1-5.67-.957,21.656,21.656,0,0,1-2.673-1.082,16.6,16.6,0,0,1-2.468-1.492ZM45.1,202.076l2.792-.479c.92-.187,1.834-.367,2.748-.591,1.822-.423,3.612-.964,5.44-1.5a18.261,18.261,0,0,1-5.3,2.108,17.694,17.694,0,0,1-5.683.466Zm19.149,4.7,2.232-1.362c.734-.46,1.461-.914,2.176-1.4,1.442-.951,2.829-1.971,4.265-2.991A17.241,17.241,0,0,1,69,204.532a16.929,16.929,0,0,1-4.756,2.244Z"
                transform="translate(-10.614 -44.212)" fill="#008ef8" />
            <path id="Path_24986" data-name="Path 24986"
                d="M167.751,207.661a20.66,20.66,0,0,0,2.9-12.3c-.547-5.378-3.382-9.04-7.063-13.678-5.067-6.373-7.026-6.112-13.324-13.156-5.092-5.7-7.89-8.822-8.816-13.678-1.243-6.572.4-10.918,2.12-13.715l-35.321,6.534c-1.716,2.8-4.626,8.543-3.376,15.114.926,4.862,3.73,7.989,8.816,13.678,6.3,7.044,8.25,6.783,13.317,13.156,3.687,4.632,6.522,8.294,7.063,13.678a20.7,20.7,0,0,1-2.9,12.3Z"
                transform="translate(-39.538 -53.385)" fill="#ffb500" />
            <ellipse id="Ellipse_6674" data-name="Ellipse 6674" cx="38.927" cy="4.495" rx="38.927"
                ry="4.495" transform="translate(46.343 93.45) rotate(-11.13)" fill="none"
                stroke="#00406f" stroke-linecap="round" stroke-linejoin="round" stroke-width="1" />
            <path id="Path_24987" data-name="Path 24987"
                d="M252.5,235.518c.864-9.7,8.511-15.929,8.94-16.271,5-3.954,6.584-2,15.543-7.019,4.029-2.257,7.815-4.421,11.583-8.63,3.563-3.979,6.422-7.175,7.392-12.08.479-2.394.392-4.632,2.22-6.261,1.393-1.243,3.73-1.952,5.409-1.132,2.537,1.243,3.053,5.546,2.369,8.424-.622,2.555-2.039,3.432-1.548,5.142.435,1.536,1.822,1.635,3.189,3.227,2.244,2.611,1.946,6.317,1.865,7.368-.385,4.781-3.556,5.776-3.488,10.613,0,2.07.622,1.977.51,3.911-.174,3.519-2.207,6.105-4.054,8.381-3.109,3.836-4.383,3.451-6.565,6.889-1.778,2.8-1.175,3.444-2.723,5.2-2.885,3.276-7.355,3.73-8.53,3.817-4.582.441-8.232-1.318-11.676-2.978-5.5-2.655-5.6-4.352-8.5-4.5-5.08-.23-7.728,4.93-10.2,3.768-2.338-1.138-1.84-6.708-1.735-7.865Zm-28.718,13.846c-8.114-5.39-17.75-3.308-18.291-3.183-6.217,1.43-5.67,3.886-15.2,7.759-4.277,1.735-8.337,3.345-13.977,3.656-5.334.292-9.612.528-14.051-1.778-2.164-1.125-3.861-2.593-6.267-2.182-1.865.317-3.849,1.679-4.265,3.519-.622,2.748,2.419,5.85,5.092,7.113,2.375,1.119,3.954.553,4.974,2,.92,1.3.137,2.443.522,4.508.622,3.382,3.73,5.465,4.588,6.056,3.973,2.692,6.733.839,10.47,3.911,1.592,1.312,1.156,1.71,2.729,2.841,2.86,2.07,6.143,2.1,9.077,2.077,4.93,0,5.434-1.243,9.481-.827,3.3.361,3.426,1.243,5.757,1.125,4.352-.205,7.461-3.426,8.313-4.278,3.208-3.3,4.116-7.256,4.974-10.98,1.362-5.944.093-7.106,1.8-9.444,2.991-4.11,8.7-2.959,9.326-5.6.609-2.549-4.054-5.645-5.048-6.3Z"
                transform="translate(-57.345 -69.516)" fill="#88c4e7" />
            <path id="Path_24988" data-name="Path 24988"
                d="M268.134,238.112a19.78,19.78,0,0,1,1.915-4.01,17.22,17.22,0,0,1,2.872-3.432,14.512,14.512,0,0,1,3.73-2.487,30.962,30.962,0,0,1,4.2-1.53,87.778,87.778,0,0,0,8.387-2.792c1.374-.528,2.736-1.1,4.085-1.7s2.686-1.243,4.016-1.865c-1.243.765-2.574,1.461-3.886,2.145s-2.673,1.281-4.035,1.865a77.527,77.527,0,0,1-8.393,2.928,29.092,29.092,0,0,0-4.141,1.442,15.873,15.873,0,0,0-3.656,2.35A19.845,19.845,0,0,0,268.134,238.112Zm37.285-25.758c.777-1.753,1.554-3.475,2.213-5.241.336-.883.622-1.778.945-2.673l.833-2.729a15.8,15.8,0,0,1-.367,2.854,21.146,21.146,0,0,1-.833,2.767A18.652,18.652,0,0,1,305.42,212.354Zm-3.444,19.218c1.561-1.088,3.109-2.151,4.576-3.314.74-.572,1.455-1.169,2.17-1.778l2.126-1.865a15.819,15.819,0,0,1-1.791,2.232,20.677,20.677,0,0,1-2.126,1.915,18.751,18.751,0,0,1-4.955,2.81Zm-9.332,14.1c1.691-.491,3.351-.926,4.974-1.461.827-.261,1.641-.541,2.487-.827l2.456-.9a16.824,16.824,0,0,1-4.744,2.3A17.539,17.539,0,0,1,292.643,245.673Zm-74.054,16.32a19.709,19.709,0,0,0-8.7-.441,15.66,15.66,0,0,0-4.116,1.38,29.925,29.925,0,0,0-3.73,2.331,77.133,77.133,0,0,1-7.535,4.707c-1.312.7-2.636,1.362-3.979,1.983s-2.717,1.188-4.1,1.7c1.331-.622,2.667-1.281,3.967-1.971s2.605-1.38,3.88-2.126c2.555-1.474,5.017-3.078,7.417-4.8a30.129,30.129,0,0,1,3.824-2.325,14.455,14.455,0,0,1,4.284-1.349,17.373,17.373,0,0,1,4.47-.093,19.725,19.725,0,0,1,4.327,1.007Zm-54.209,9.488,2.655,1.051c.889.323,1.772.622,2.673.933,1.8.591,3.618,1.057,5.477,1.548a18.963,18.963,0,0,1-5.67-.957,21.65,21.65,0,0,1-2.673-1.082A16.222,16.222,0,0,1,164.38,271.481ZM181.359,286.9l2.792-.479c.92-.186,1.865-.367,2.748-.591,1.828-.423,3.612-.964,5.44-1.5a18.26,18.26,0,0,1-5.3,2.108,17.676,17.676,0,0,1-5.683.466Zm19.149,4.7,2.232-1.362c.734-.46,1.467-.914,2.182-1.4,1.442-.951,2.823-1.971,4.259-2.991a17.11,17.11,0,0,1-3.917,3.507,16.932,16.932,0,0,1-4.756,2.244Z"
                transform="translate(-62.161 -76.301)" fill="#008ef8" />
            <path id="Path_24989" data-name="Path 24989"
                d="M304.018,292.521a20.71,20.71,0,0,0,2.9-12.3c-.547-5.378-3.376-9.04-7.063-13.678-5.067-6.373-7.019-6.112-13.324-13.156-5.092-5.7-7.884-8.822-8.81-13.678-1.243-6.572.4-10.918,2.114-13.715l-35.314,6.534c-1.716,2.8-4.632,8.543-3.382,15.114.926,4.862,3.73,7.989,8.816,13.678,6.3,7.044,8.25,6.783,13.324,13.156,3.681,4.632,6.516,8.294,7.057,13.678a20.7,20.7,0,0,1-2.9,12.3Z"
                transform="translate(-91.081 -85.485)" fill="#ffb500" />
            <ellipse id="Ellipse_6675" data-name="Ellipse 6675" cx="38.927" cy="4.495" rx="38.927"
                ry="4.495" transform="translate(131.061 146.192) rotate(-11.13)" fill="none"
                stroke="#00406f" stroke-linecap="round" stroke-linejoin="round" stroke-width="1" />
            <path id="Path_24990" data-name="Path 24990"
                d="M68.95,5.552l-7.5,27.791a22.245,22.245,0,0,1-.87-2.829L66.792,7.548a21.318,21.318,0,0,1,2.157-2ZM63.683,11.57,59.891,25.522A24.434,24.434,0,0,1,63.683,11.57Zm9.326-8.692L63.609,37.7a20.351,20.351,0,0,1-1.088-1.983L71.082,4a17.067,17.067,0,0,1,1.927-1.125Zm3.836-1.635L66.1,41.034a15.107,15.107,0,0,1-1.243-1.486L75.043,1.9a15.375,15.375,0,0,1,1.8-.653Zm3.668-.92L68.807,43.683a15.468,15.468,0,0,1-1.3-1.181L78.8.671a1.958,1.958,0,0,1,.242-.05C79.525.5,80.023.4,80.514.323ZM83.939,0,71.611,45.685c-.479-.292-.933-.622-1.374-.92L82.292.093A14.717,14.717,0,0,1,83.939,0Zm3.277.124L74.5,47.214c-.491-.218-.964-.441-1.43-.7L85.624,0a12.291,12.291,0,0,1,1.592.124ZM90.486.7,77.616,48.364a12.64,12.64,0,0,1-1.5-.491L88.951.361C89.46.454,89.983.56,90.486.7ZM93.645,1.71,80.856,49.117c-.516-.075-1.026-.168-1.542-.286L92.171,1.181a14.263,14.263,0,0,1,1.474.528Zm3.078,1.467L84.25,49.372a11.37,11.37,0,0,1-1.6-.075L95.3,2.419c.473.242.957.485,1.418.759Zm2.9,1.915L87.732,49.16a13.752,13.752,0,0,1-1.666.168l12.2-45.2a13.808,13.808,0,0,1,1.362.964ZM102.4,7.579,91.375,48.408c-.429.131-.846.242-1.243.342l-.479.1L101.13,6.323A17.464,17.464,0,0,1,102.4,7.579Zm2.506,3.078L95.087,47.028a16.245,16.245,0,0,1-1.828.771L103.717,9.052a13.9,13.9,0,0,1,1.188,1.6Zm2.238,3.973-8.12,30.086a17.638,17.638,0,0,1-1.965,1.243l9.034-33.468a22.286,22.286,0,0,1,1.051,2.139Zm1.8,5.956L103.58,40.413a19.71,19.71,0,0,1-2.269,2.406l6.839-25.46c.174.566.336,1.163.473,1.747a13.738,13.738,0,0,1,.317,1.48Zm-2.319,15.2,2.617-9.674A24.428,24.428,0,0,1,106.62,35.787Z"
                transform="translate(-22.631)" fill="#fdb515" />
        </g>
    </g>
</svg>