<svg xmlns="http://www.w3.org/2000/svg" width="130.802" height="275.255" viewBox="0 0 130.802 275.255">
    <g id="Group_1816" data-name="Group 1816" transform="translate(0)">
        <rect id="Rectangle_515" data-name="Rectangle 515" width="54.445" height="60.88" transform="translate(19.436 122.528)" fill="#ccc"/>
        <path id="Path_4861" data-name="Path 4861" d="M379.763,701.866l-.936,12.787a4.071,4.071,0,0,0,4.306,4.36l6.568-.4a2.076,2.076,0,0,0,1.888-2.576l-3.646-14.583Z" transform="translate(-332.388 -444.101)" fill="#2f2e41"/>
        <path id="Path_4862" data-name="Path 4862" d="M490.782,709.628c7.73,1.808,13.252,4.378,16.88,7.857a7.442,7.442,0,0,0,4.763,2.042,12.172,12.172,0,0,0,5.533-.76h0a2.192,2.192,0,0,0,1.3-1.807,2.231,2.231,0,0,0-.935-2.062L499.99,701.853l-7.787,3.115-1.816,1.817a1.8,1.8,0,0,0,.4,2.843Z" transform="translate(-388.468 -444.301)" fill="#2f2e41"/>
        <path id="Path_4863" data-name="Path 4863" d="M390.192,238.046l-52.4-.485a44.765,44.765,0,0,1,5.789-21.834c2.549-4.4,2.494-9.2,1.88-13.237a17.8,17.8,0,0,1,6.156-16.577,19.757,19.757,0,0,1,13.286-4.4l1.017.042a19.8,19.8,0,0,1,16.27,9.785,16.5,16.5,0,0,1,1.961,10.048,16.64,16.64,0,0,0,2.322,9.9C389.676,218.609,390.371,227.972,390.192,238.046Z" transform="translate(-311.666 -181.499)" fill="#2f2e41"/>
        <path id="Path_4864" data-name="Path 4864" d="M420.955,571.366l-10.285,2.683L360.589,464.943l3.13,106.423H353.434c-2.264-10.314-4.9-20.956-7.635-31.688-10.309-40.511-21.359-79.924-14.276-94.41l53.212-3.13Z" transform="translate(-307.368 -313.133)" fill="#2a2ac0"/>
        <circle id="Ellipse_6644" data-name="Ellipse 6644" cx="13.862" cy="13.862" r="13.862" transform="translate(38.911 10.509)" fill="#ffb9b9"/>
        <path id="Path_4865" data-name="Path 4865" d="M392.753,265.806l-22.8-1.341c2.235-5.13,3.128-10.069,2.236-14.756h16.992C389.138,253.307,390.928,259.532,392.753,265.806Z" transform="translate(-327.907 -215.948)" fill="#ffb9b9"/>
        <path id="Path_4866" data-name="Path 4866" d="M221.109,197.051l-50.081,3.578,5.142-88.761,8.72-2.459,9.837,2.236,9.837-4.919,6.26,2.236Z" transform="translate(-141.954 -64.021)" fill="#2a2ac0"/>
        <path id="Path_4867" data-name="Path 4867" d="M326.009,422.045,291.8,414.22c10.172-33.73,28.5-110.9,22.581-138.395l17.886-8.049Z" transform="translate(-288.442 -225.073)" fill="#e6e6e6"/>
        <path id="Path_4868" data-name="Path 4868" d="M314.256,330.954,301.289,322.9l11.059-32.39a15.28,15.28,0,0,1,6.679-7.933l3.725-2.157-2.236,32.642Z" transform="translate(-293.231 -231.461)" fill="#e6e6e6"/>
        <path id="Path_4869" data-name="Path 4869" d="M453.392,413.755c-10.8,6.246-37.784,9.728-49.634,5.366-.872-30.476-2.582-116.68,2.907-153.151l19.675,8.049-1.789,24.146C415.144,318.822,442.457,390.766,453.392,413.755Z" transform="translate(-344.501 -224.161)" fill="#e6e6e6"/>
        <path id="Path_4870" data-name="Path 4870" d="M300.382,166.79l-12.073-4.024-16.1-18.334,2.683-23.252,26.829,37.561Z" transform="translate(-193.057 -71.322)" fill="#e6e6e6"/>
        <path id="Path_4871" data-name="Path 4871" d="M425.318,403.084a3.358,3.358,0,0,0,4.012,2.53l10.249-2.321-1.481-6.542-10.249,2.32A3.354,3.354,0,0,0,425.318,403.084Z" transform="translate(-355.83 -290.211)" fill="#ffb9b9"/>
        <path id="Path_4872" data-name="Path 4872" d="M389.559,211.646a29.531,29.531,0,0,0-22.8-.447l-3.13-11.179h28.618Z" transform="translate(-324.716 -190.853)" fill="#2f2e41"/>
        <path id="Path_4873" data-name="Path 4873" d="M444.029,376.005l5.813,10.732c9.777-2.727,18.251-11.324,26.382-21.464l-2.236-7.154L460.127,361.7Z" transform="translate(-365.323 -270.7)" fill="#e6e6e6"/>
        <path id="Path_4874" data-name="Path 4874" d="M422.672,303.91h-1.789c0-25.3-5.209-42.927-10.285-42.927l-.447-1.789c4.552,0,7.454,7.337,9.087,13.493C421.452,281.032,422.672,292.12,422.672,303.91Z" transform="translate(-348.212 -220.739)" fill="#3f3d56"/>
        <path id="Path_4875" data-name="Path 4875" d="M350.507,298.562h-1.789c0-23.168,5.245-37.561,12.968-37.561l-.447,1.789C355.9,262.79,350.507,273.851,350.507,298.562Z" transform="translate(-317.186 -221.651)" fill="#3f3d56"/>
        <circle id="Ellipse_6645" data-name="Ellipse 6645" cx="4.472" cy="4.472" r="4.472" transform="translate(69.093 79.147)" fill="#3f3d56"/>
        <path id="Path_4876" data-name="Path 4876" d="M336.052,346.708h-1.789c0-6.411,3.611-11.626,8.049-11.626v1.789C338.86,336.871,336.052,341.284,336.052,346.708Z" transform="translate(-309.885 -259.065)" fill="#3f3d56"/>
        <path id="Path_4877" data-name="Path 4877" d="M358.574,346.708h-1.789c0-5.424-2.808-9.838-6.26-9.838v-1.789C354.963,335.082,358.574,340.3,358.574,346.708Z" transform="translate(-318.098 -259.065)" fill="#3f3d56"/>
        <circle id="Ellipse_6646" data-name="Ellipse 6646" cx="1.789" cy="1.789" r="1.789" transform="translate(37.793 86.301)" fill="#3f3d56"/>
        <circle id="Ellipse_6647" data-name="Ellipse 6647" cx="1.789" cy="1.789" r="1.789" transform="translate(23.485 86.301)" fill="#3f3d56"/>
        <path id="Path_4878" data-name="Path 4878" d="M118.177,165.193l11.16,1.993,25.507,36.268-13.551-3.188Z" transform="translate(-115.262 -93.55)" fill="#2a2ac0"/>
        <path id="Path_4879" data-name="Path 4879" d="M285.946,325.347a.949.949,0,0,0-.779,1.47l23.843,36.175a.946.946,0,0,0,.574.4L320.677,366a.948.948,0,0,0,.992-1.467l-26.178-37.222a.942.942,0,0,0-.608-.388l-8.758-1.564A1.03,1.03,0,0,0,285.946,325.347Z" transform="translate(-285.011 -254.149)" fill="#3f3d56"/>
        <path id="Path_4880" data-name="Path 4880" d="M316.949,376.528l.663,6.675,10.457-1.038a3.354,3.354,0,0,0-.662-6.675Z" transform="translate(-301.14 -279.465)" fill="#ffb9b9"/>
        <path id="Path_4881" data-name="Path 4881" d="M298.578,370.333a8.626,8.626,0,0,0,8.615,8.568h1.719l1.252-10.431L299.8,364.739Z" transform="translate(-291.863 -274.043)" fill="#e6e6e6"/>
    </g>
</svg>