<svg xmlns="http://www.w3.org/2000/svg" xmlns:xlink="http://www.w3.org/1999/xlink" width="237.705" height="210.686" viewBox="0 0 237.705 210.686">
    <defs>
        <linearGradient id="linear-gradient" x1="0.5" y1="1" x2="0.5" gradientUnits="objectBoundingBox">
            <stop offset="0" stop-color="gray" stop-opacity="0.251"/>
            <stop offset="0.54" stop-color="gray" stop-opacity="0.122"/>
            <stop offset="1" stop-color="gray" stop-opacity="0.102"/>
        </linearGradient>
    </defs>
    <g id="Group_69745" data-name="Group 69745" transform="translate(-1867.97 447.195)">
        <path id="Path_150" data-name="Path 150" d="M267.81,317.87V468.225a5.249,5.249,0,0,0,5.249,5.249H488.824a5.249,5.249,0,0,0,5.249-5.249V317.87Z" transform="translate(1600.16 -733.258)" fill="#f4f2f2"/>
        <rect id="Rectangle_16" data-name="Rectangle 16" width="54.088" height="31.748" rx="8.65" transform="translate(1885.875 -401.929)" opacity="0.1"/>
        <rect id="Rectangle_17" data-name="Rectangle 17" width="54.088" height="31.748" rx="8.65" transform="translate(1954.059 -401.929)" opacity="0.1"/>
        <rect id="Rectangle_18" data-name="Rectangle 18" width="52.567" height="30.853" rx="8.65" transform="translate(1886.634 -401.483)" fill="#2a2ac0"/>
        <rect id="Rectangle_19" data-name="Rectangle 19" width="52.567" height="30.853" rx="8.65" transform="translate(2075.569 -370.63) rotate(180)" fill="#444053" opacity="0.1"/>
        <rect id="Rectangle_20" data-name="Rectangle 20" width="52.567" height="30.853" rx="8.65" transform="translate(2007.385 -370.63) rotate(180)" fill="#2a2ac0"/>
        <rect id="Rectangle_21" data-name="Rectangle 21" width="52.567" height="30.853" rx="8.65" transform="translate(1886.634 -356.916)" fill="#444053" opacity="0.1"/>
        <rect id="Rectangle_22" data-name="Rectangle 22" width="52.567" height="30.853" rx="8.65" transform="translate(2075.569 -326.062) rotate(180)" fill="#444053" opacity="0.1"/>
        <rect id="Rectangle_23" data-name="Rectangle 23" width="52.567" height="30.853" rx="8.65" transform="translate(2007.385 -326.062) rotate(180)" fill="#444053" opacity="0.1"/>
        <rect id="Rectangle_24" data-name="Rectangle 24" width="52.567" height="30.853" rx="8.65" transform="translate(1886.634 -312.348)" fill="#444053" opacity="0.1"/>
        <rect id="Rectangle_25" data-name="Rectangle 25" width="52.567" height="30.853" rx="8.65" transform="translate(2075.569 -281.491) rotate(180)" fill="#444053" opacity="0.1"/>
        <rect id="Rectangle_26" data-name="Rectangle 26" width="52.567" height="30.853" rx="8.65" transform="translate(2007.385 -281.491) rotate(180)" fill="#444053" opacity="0.1"/>
        <path id="Path_151" data-name="Path 151" d="M267.81,229.682V257H494.073V229.682a5.249,5.249,0,0,0-5.249-5.252H273.059A5.249,5.249,0,0,0,267.81,229.682Zm55.995,8.081a4.19,4.19,0,1,1,4.19-4.19A4.19,4.19,0,0,1,323.8,237.763Zm114.273,0a4.2,4.2,0,1,0-.007,0Z" transform="translate(1600.16 -671.625)" fill="#2a2ac0"/>
        <path id="Path_152" data-name="Path 152" d="M422.706,236.74a4.953,4.953,0,1,0,4.949,4.952,4.953,4.953,0,0,0-4.949-4.952Zm0,9.143a4.19,4.19,0,1,1,4.19-4.19A4.19,4.19,0,0,1,422.706,245.883Z" transform="translate(1501.258 -679.745)" opacity="0.1"/>
        <path id="Path_153" data-name="Path 153" d="M758.4,236.74a4.953,4.953,0,1,0,4.953,4.953A4.953,4.953,0,0,0,758.4,236.74Zm0,9.143a4.19,4.19,0,1,1,4.19-4.19A4.19,4.19,0,0,1,758.4,245.883Z" transform="translate(1279.828 -679.744)" opacity="0.1"/>
        <path id="Path_154" data-name="Path 154" d="M843.358,534.411a10.9,10.9,0,0,0-2.526-1.419.52.52,0,0,0-.221-.058,38.862,38.862,0,0,1-5.208-4.486c.34-.272.654-.538.987-.8-2.042-.973-3.176-3.2-4.279-5.215a51.446,51.446,0,0,0-11.349-14.14c-.112-.432-.769-.34-1.12-.62a.9.9,0,0,1-.249-.868c.055-.313.2-.6.276-.909a6.136,6.136,0,0,0-.058-2.213,2.711,2.711,0,0,1,.443-2.114c.157-.18.358-.32.511-.5a1.92,1.92,0,0,0,.34-1.528,5.42,5.42,0,0,0-.34-1.549q2.5-6.808,5-13.64c1.168-3.179,2.345-6.427,2.464-9.817a11.734,11.734,0,0,0-2.253-7.632c.3-.071.6-.146.9-.231-1.947-2.58-2.158-6-2.209-9.248q-.041-2.43-.167-4.864c.565.249,1.137.47,1.722.66l.545.167a18.769,18.769,0,0,0,2.7.579c.4.058.81.1,1.215.129h0q-.878-2.2-1.753-4.4a6.019,6.019,0,0,1-.544-2.066h0v-.136a1.192,1.192,0,0,1,.017-.245,2.7,2.7,0,0,1,.133-.572,2.591,2.591,0,0,1,.105-.269,4.77,4.77,0,0,1,.436-.766c.122-.187.259-.368.395-.551a7.53,7.53,0,0,0,1.222-1.978,3.747,3.747,0,0,0,.187-1.127,5.553,5.553,0,0,0-.1-1.157c-.048-.252-.109-.507-.177-.752h0c-.044-.153-.092-.306-.14-.456l-.041-.123c-.037-.116-.075-.228-.116-.34l-.041-.116c-.044-.122-.089-.242-.136-.364l-.027-.071c-.65-1.671-1.515-3.264-2.042-4.983a13.079,13.079,0,0,1-.34-1.392c-.024-.119-.041-.242-.061-.361s-.031-.2-.044-.306-.031-.238-.044-.357l-.031-.34c0-.109-.017-.218-.024-.34,0-.208-.02-.415-.024-.623v-.946c0-.156.024-.313.038-.466a.7.7,0,0,1,.024-.221q.034-.34.092-.681h0c.034-.2.071-.405.112-.609a8.12,8.12,0,0,0,.19-1.7,1.688,1.688,0,0,0-.024-.34c-.024-.119-.027-.184-.044-.272a.653.653,0,0,1,0-.082.917.917,0,0,0-.044-.184.353.353,0,0,0-.027-.085c-.01-.027-.038-.119-.058-.177s-.017-.051-.027-.078-.048-.122-.075-.18l-.024-.061c-.034-.075-.072-.146-.109-.218h0a5.023,5.023,0,0,0-.456-.708h0c-1.12-1.47-2.982-2.59-4.006-4.211a9.371,9.371,0,0,1-1.147-3.4c-.051-.272-.1-.545-.143-.814s-.088-.534-.136-.8c-.031-.163-.061-.34-.1-.49l-.02-.105c-.027-.129-.054-.262-.085-.391l-.02-.092c-.031-.136-.061-.272-.1-.408l-.021-.071c-.034-.143-.072-.286-.109-.429a.3.3,0,0,1,0-.051c-.041-.15-.085-.3-.129-.449v-.031c-.048-.157-.1-.31-.146-.463h0c-.051-.157-.105-.316-.163-.473h0c-.061-.16-.119-.32-.184-.477h0a12.6,12.6,0,0,0-1.722-3.063,8.131,8.131,0,0,0-6.468-3.343,12.813,12.813,0,0,0-3.891.987l-3.278,1.208.916-.422a7.834,7.834,0,0,0-2.788.6A2.708,2.708,0,0,0,801.5,407.9c-.017.562.2,1.12.133,1.678-.119.922-.967,1.549-1.406,2.366a3.046,3.046,0,0,0-.34,1.6v.218a.29.29,0,0,0,0,.054v.109c-1.361-.592-2.723-1.208-4.085-1.869-2.25-1.106-4.527-2.407-5.93-4.5-.449-.681-.8-1.416-1.242-2.09a16.537,16.537,0,0,0-1.7-2.042l-4.177-4.521c-.32.6.092,1.314.415,1.913a8.207,8.207,0,0,1,.773,1.995.945.945,0,0,1-.02.7,1.361,1.361,0,0,1-.572.405,2.042,2.042,0,0,0-.861,2.339,2.587,2.587,0,0,0,1.93,1.681,3.506,3.506,0,0,1,.861.211c.5.249.742.827,1.1,1.26a4.95,4.95,0,0,0,2.7,1.345c1.546,1.784,3.152,3.492,4.7,5.276,2.338,2.7,4.731,5.446,7.781,7.271.317.191.64.368.967.531a.533.533,0,0,1-.017.163,1.846,1.846,0,0,0,.146,1.191,1.871,1.871,0,0,0,1.334.65l2.308.412a7.883,7.883,0,0,1-.112.892c-.031.18-.068.357-.1.538h0l-.041.232v.034a.679.679,0,0,1-.024.187c-.024.065,0,.044,0,.065v.453a4.337,4.337,0,0,0,1.283,2.345l.323.391a5.446,5.446,0,0,0-1.052,2.206,7.494,7.494,0,0,0-.15,1.535,2.664,2.664,0,0,0-.681,1.062,4.855,4.855,0,0,0-.177,1.719v.681a5.72,5.72,0,0,0,.395,2.383c.031.061.065.116.1.174a33.065,33.065,0,0,1-1.971,2.723,5.909,5.909,0,0,0,.541,6.767c.466.538,1.066,1.055,1.12,1.77a6.635,6.635,0,0,1-.1.967,7.232,7.232,0,0,0,.49,2.243,2.318,2.318,0,0,1-.187,1.859,2.724,2.724,0,0,0-.466,1.784,11.922,11.922,0,0,1-.292,2.9c-.031.419,0,.844-.038,1.263a7.128,7.128,0,0,1-.248,1.185.475.475,0,0,1-.034.129c-.841.371-1.675.756-2.478,1.2a2.175,2.175,0,0,0-1.021.939,2.409,2.409,0,0,0-.054,1.294l.725,5.045-.126-.054q.085,1.239.177,2.488a3.359,3.359,0,0,0,.477,1.8,4.7,4.7,0,0,1,.514.657c.286.579-.055,1.253-.306,1.845s-.34,1.433.214,1.753a4.521,4.521,0,0,0,.929.5c-.681,2.839-.054,5.814.578,8.663q.725,3.268,1.454,6.529a15.838,15.838,0,0,1,.32,2.8v.408a15.711,15.711,0,0,0,.681,3.819c.756,2.546.031,5.6.269,8.377a24.845,24.845,0,0,0,.8,3.945,121.588,121.588,0,0,1,3.676,19.62,4.928,4.928,0,0,0,2.355,1.644c-.068.824.024,1.766,0,2.247a3.882,3.882,0,0,1-.184,1.171,2.815,2.815,0,0,1-1.78,1.515c-.238.082-.48.146-.725.2l.272-.232a6.08,6.08,0,0,0-4.531.8,1.794,1.794,0,0,0-.9,1.055,1.7,1.7,0,0,0,.313,1.222,5.571,5.571,0,0,0,3.149,2.236,16.515,16.515,0,0,0,3.88.541l2.4.139a.661.661,0,0,0,.157.854,1.682,1.682,0,0,0,.882.32,11.23,11.23,0,0,0,2.965.044,1.161,1.161,0,0,0,.681-.245.439.439,0,0,0,0-.65.719.719,0,0,0,.654-.477,1.933,1.933,0,0,0,.088-.861,9.247,9.247,0,0,0-.745-3.744.95.95,0,0,0-1.052-.463,40.855,40.855,0,0,1-.681-6.039,14.731,14.731,0,0,0,1.75-.79c-1.671-2.7-1.7-6.127-1.191-9.265a28.114,28.114,0,0,0,.446-3,9.946,9.946,0,0,0-1.3-5.943,21.267,21.267,0,0,1,5.31,4.806c2.352,3.064,3.785,6.774,6.668,9.327q.568-.555,1.151-1.1.912,1.545,1.726,3.155a12,12,0,0,1,1,2.488,11.5,11.5,0,0,1,.092,4.013q-.119,1.062-.289,2.114a5.746,5.746,0,0,1-.208.885.615.615,0,0,0-.065-.266c-.18-.317-.681-.174-.953.044a4.209,4.209,0,0,0-1.174,1.362,1.467,1.467,0,0,0-.211.868,1.283,1.283,0,0,0,.681.851c1.263.739,2.849.2,4.2-.34a4.933,4.933,0,0,0,1.062-.534c.681-.49,1.052-1.3,1.729-1.773a10.011,10.011,0,0,0,1.045-.66c.63-.575.681-1.545,1.14-2.274.763-1.256,2.468-1.58,3.135-2.91C845.424,537.226,844.522,535.37,843.358,534.411Z" transform="translate(1260.736 -786.706)" fill="url(#linear-gradient)"/>
        <path id="Path_155" data-name="Path 155" d="M864.533,807.279a3.791,3.791,0,0,1-.187,1.157,2.8,2.8,0,0,1-1.777,1.494c-.755.262-1.559.34-2.328.568a2.042,2.042,0,0,0-.909.47,1.649,1.649,0,0,0,.524,2.413,4.522,4.522,0,0,0,2.757.426,36.313,36.313,0,0,0,5.964-.848c.708-.167,1.535-.494,1.647-1.212a1.986,1.986,0,0,0-.054-.681,40.223,40.223,0,0,1-.766-7.4,15.374,15.374,0,0,0-4.316-.031C864.264,804.181,864.578,806.441,864.533,807.279Z" transform="translate(1210.215 -1053.583)" fill="#a1616a"/>
        <path id="Path_156" data-name="Path 156" d="M925.536,782.4q.98,1.624,1.842,3.312a11.738,11.738,0,0,1,1,2.454,11.27,11.27,0,0,1,.092,3.959q-.119,1.045-.292,2.086a2.635,2.635,0,0,1-.875,1.845,2.015,2.015,0,0,0,1.736.153,5,5,0,0,0,1.528-.936,13.491,13.491,0,0,0,5.215-9.684,1.535,1.535,0,0,0-.16-.858,1.7,1.7,0,0,0-.51-.456,39.248,39.248,0,0,1-6.035-5.069.74.74,0,0,0-.443-.282.768.768,0,0,0-.4.112c-1.12.562-2.992,1.362-3.458,2.638a1.785,1.785,0,0,1,.756.725Z" transform="translate(1166.818 -1037.37)" fill="#a1616a"/>
        <path id="Path_157" data-name="Path 157" d="M864.137,823.379a30.307,30.307,0,0,1-7.758,1.739,1.061,1.061,0,0,1-.929-.17.707.707,0,0,1-.061-.8,2.075,2.075,0,0,1,.568-.626l1.76-1.474a6.128,6.128,0,0,0-4.473.769,1.78,1.78,0,0,0-.891,1.021,1.66,1.66,0,0,0,.313,1.208,5.561,5.561,0,0,0,3.145,2.206,16.819,16.819,0,0,0,3.877.534l2.383.136a.644.644,0,0,0,.16.844,1.7,1.7,0,0,0,.885.323,11.35,11.35,0,0,0,2.961.041,1.135,1.135,0,0,0,.681-.242.429.429,0,0,0,0-.64.718.718,0,0,0,.654-.473,1.976,1.976,0,0,0,.089-.848,8.918,8.918,0,0,0-.746-3.687C866.172,822.283,864.96,823.038,864.137,823.379Z" transform="translate(1214.601 -1065.732)" fill="#3f3d56"/>
        <path id="Path_158" data-name="Path 158" d="M938.722,794.789a10.947,10.947,0,0,0-2.526-1.4.3.3,0,0,0-.456.116,25.914,25.914,0,0,0-3.72,7.172,12.467,12.467,0,0,1-1.859,4.207c-.129.157-.34.317-.518.225-.255-.129-.1-.541-.242-.79-.177-.313-.66-.17-.95.044a4.085,4.085,0,0,0-1.171,1.362,1.362,1.362,0,0,0-.211.854,1.26,1.26,0,0,0,.664.838c1.263.732,2.849.2,4.2-.341a4.818,4.818,0,0,0,1.059-.527c.681-.48,1.052-1.28,1.729-1.746a9.946,9.946,0,0,0,1.045-.654c.626-.568.681-1.525,1.137-2.246.763-1.236,2.468-1.556,3.135-2.869C940.784,797.567,939.886,795.735,938.722,794.789Z" transform="translate(1165.311 -1046.874)" fill="#3f3d56"/>
        <path id="Path_159" data-name="Path 159" d="M862.072,594.5c2.675,2.008,3.8,5.579,3.68,8.922s-1.293,6.549-2.458,9.684q-2.5,6.729-5,13.456a5.55,5.55,0,0,1,.34,1.532,1.882,1.882,0,0,1-.34,1.5c-.156.18-.34.32-.511.5a2.665,2.665,0,0,0-.443,2.087,6.041,6.041,0,0,1,.058,2.182c-.078.3-.221.589-.276.9a.888.888,0,0,0,.249.858c.34.272,1.021.184,1.12.613a50.877,50.877,0,0,1,11.335,13.956c1.1,1.984,2.216,4.183,4.275,5.143a74.7,74.7,0,0,0-5.763,5.068c-2.876-2.519-4.309-6.185-6.658-9.191a21.1,21.1,0,0,0-5.3-4.741,9.7,9.7,0,0,1,1.3,5.862,27.2,27.2,0,0,1-.446,2.958c-.528,3.1-.48,6.467,1.192,9.143a10,10,0,0,1-5.824,1.338,4.957,4.957,0,0,1-3.172-1.811,119.7,119.7,0,0,0-3.673-19.358,23.8,23.8,0,0,1-.793-3.918c-.238-2.723.487-5.753-.272-8.265a15.413,15.413,0,0,1-.681-3.765v-.405a15.417,15.417,0,0,0-.32-2.764l-1.45-6.44c-.633-2.815-1.266-5.749-.582-8.551a4.54,4.54,0,0,1-.926-.487c-.555-.317-.466-1.144-.215-1.729s.589-1.249.307-1.821a4.445,4.445,0,0,0-.514-.65,3.272,3.272,0,0,1-.476-1.774l-.177-2.458a4.81,4.81,0,0,1,2.424,2.121c-1.341-2.076-.681-5.038.31-7.3a3.329,3.329,0,0,1,3.125-2.475C850.975,593.477,857.639,591.165,862.072,594.5Z" transform="translate(1222.964 -914.576)" fill="#192534"/>
        <path id="Path_160" data-name="Path 160" d="M891.289,638.93s-2.682,1.79-2.682,3.132-.681,13.412-.681,13.412v8.51s.446,4.473,0,5.589,0,6.26,0,6.93.681-6.93.681-6.93v-8.061l.681-18.334Z" transform="translate(1191.258 -945.032)" opacity="0.1"/>
        <path id="Path_161" data-name="Path 161" d="M806.879,422.57l-1.562-.609c-3.193-1.28-6.389-2.563-9.48-4.064-2.247-1.093-4.524-2.383-5.923-4.442-.45-.681-.8-1.4-1.243-2.066a16.492,16.492,0,0,0-1.7-2.019L782.8,404.91c-.32.6.088,1.3.415,1.886a8.163,8.163,0,0,1,.773,1.971.913.913,0,0,1-.024.681,1.324,1.324,0,0,1-.569.4,2,2,0,0,0-.861,2.3,2.571,2.571,0,0,0,1.927,1.661,3.658,3.658,0,0,1,.861.208c.5.249.743.817,1.1,1.242a4.953,4.953,0,0,0,2.7,1.328c1.545,1.76,3.149,3.445,4.694,5.2,2.335,2.662,4.725,5.371,7.775,7.175a11.386,11.386,0,0,0,3.51,1.409A56.878,56.878,0,0,1,806.879,422.57Z" transform="translate(1260.708 -790.671)" fill="#a1616a"/>
        <path id="Path_162" data-name="Path 162" d="M806.879,422.57l-1.562-.609c-3.193-1.28-6.389-2.563-9.48-4.064-2.247-1.093-4.524-2.383-5.923-4.442-.45-.681-.8-1.4-1.243-2.066a16.492,16.492,0,0,0-1.7-2.019L782.8,404.91c-.32.6.088,1.3.415,1.886a8.163,8.163,0,0,1,.773,1.971.913.913,0,0,1-.024.681,1.324,1.324,0,0,1-.569.4,2,2,0,0,0-.861,2.3,2.571,2.571,0,0,0,1.927,1.661,3.658,3.658,0,0,1,.861.208c.5.249.743.817,1.1,1.242a4.953,4.953,0,0,0,2.7,1.328c1.545,1.76,3.149,3.445,4.694,5.2,2.335,2.662,4.725,5.371,7.775,7.175a11.386,11.386,0,0,0,3.51,1.409A56.878,56.878,0,0,1,806.879,422.57Z" transform="translate(1260.708 -790.671)" opacity="0.15"/>
        <path id="Path_163" data-name="Path 163" d="M842.893,464.807a1.874,1.874,0,0,1-1.335-.64,1.8,1.8,0,0,1-.146-1.174,32.945,32.945,0,0,1,1.7-7.523,8.134,8.134,0,0,0,3.669,2.965,27.24,27.24,0,0,0,3.942,1.8c-.34-.109-1.174,5.126-1.644,5.446-.592.415-2.022-.146-2.679-.259Z" transform="translate(1221.835 -824.02)" fill="#6c63ff"/>
        <circle id="Ellipse_28" data-name="Ellipse 28" cx="7.155" cy="7.155" r="7.155" transform="translate(2061.198 -375.069)" fill="#a1616a"/>
        <path id="Path_164" data-name="Path 164" d="M852.22,465.15s4.694,4.023,2.682,6.706-3.132,4.473-.449,4.7,11.624-4.473,11.624-4.473-8.272-6.706-6.93-10.729S852.22,465.15,852.22,465.15Z" transform="translate(1214.679 -827.141)" fill="#fbbebe"/>
        <path id="Path_165" data-name="Path 165" d="M851.057,483.488a5.552,5.552,0,0,0-4.109,4.132c-.528,2.41.592,5.106-.463,7.325a29.093,29.093,0,0,1-2.042,2.836,5.787,5.787,0,0,0,.538,6.675c.466.531,1.065,1.045,1.12,1.746a6.435,6.435,0,0,1-.1.953,7.069,7.069,0,0,0,.49,2.216,2.254,2.254,0,0,1-.187,1.831,2.652,2.652,0,0,0-.463,1.76,11.771,11.771,0,0,1-.3,2.866c-.031.415,0,.831-.037,1.246a7.258,7.258,0,0,1-.245,1.168l-.6,2.209a24.553,24.553,0,0,0,10.212,1.825,50.063,50.063,0,0,0,9.323-1.362c.936-.2,1.872-.395,2.795-.65-1.947-2.546-2.155-5.919-2.209-9.123a136.159,136.159,0,0,0-1.195-15.964,20.523,20.523,0,0,0,1.75-5.742,9.721,9.721,0,0,0,.218-2.427,12.916,12.916,0,0,0-1.644-4.861c-.7-1.409-1.46-2.893-3.023-3.5a2.4,2.4,0,0,0-2.325.255c-1.181.892-.83,2.43-1.134,3.744a5.026,5.026,0,0,1-3.639,3.4,11.827,11.827,0,0,1-3.826.357.681.681,0,0,1-.483-1.117C850.036,484.683,850.588,484.067,851.057,483.488Z" transform="translate(1220.345 -839.182)" fill="#2a2ac0"/>
        <path id="Path_166" data-name="Path 166" d="M852.718,574.49a46.594,46.594,0,0,1-8.384,5.882c-1.794.9-3.7,1.562-5.446,2.529a2.176,2.176,0,0,0-1.021.926,2.289,2.289,0,0,0-.054,1.276l.776,5.351c.214,1.45,1.607,2.383,2.723,3.309a1.96,1.96,0,0,1,.072-1.3,4.341,4.341,0,0,1,.262-.392,3.672,3.672,0,0,0,.378-2.515,13.968,13.968,0,0,1-.3-2.58.844.844,0,0,1,.361-.749c3.8-1.828,7.9-3.23,11.74-4.966a12.444,12.444,0,0,0,2.849-1.617,4.384,4.384,0,0,0,1.654-2.747.538.538,0,0,0-.068-.419.569.569,0,0,0-.289-.17C856.252,575.685,854.434,575.109,852.718,574.49Z" transform="translate(1224.226 -902.527)" fill="#a1616a"/>
        <path id="Path_167" data-name="Path 167" d="M853.662,508.495a3.849,3.849,0,0,0-3.142,2.162,4.806,4.806,0,0,0-.177,1.7,5.534,5.534,0,0,0,.4,2.359,6.669,6.669,0,0,0,.8,1.157c3.145,4.03,4.725,9.092,7.788,13.187.272.361.769.83.616,1.256a3.055,3.055,0,0,0-.146.34.68.68,0,0,0,.225.6,1.453,1.453,0,0,1,.371.541c.058.214-.085.494-.306.476a4.553,4.553,0,0,0,2.563,2.338,10.671,10.671,0,0,0,5.722,1.406,13.057,13.057,0,0,0,.681-4.684,12.158,12.158,0,0,0-1.141-3.322L866.58,525.1a43.29,43.29,0,0,0-3.857-7.2,10.9,10.9,0,0,1-1.426-2.3c-.4-1.052-1.518-1.791-2.192-2.693a16.689,16.689,0,0,0-3.383-3.707A3.058,3.058,0,0,0,853.662,508.495Z" transform="translate(1215.926 -858.984)" opacity="0.1"/>
        <path id="Path_168" data-name="Path 168" d="M853.663,506.525a3.852,3.852,0,0,0-3.142,2.158,4.826,4.826,0,0,0-.177,1.7,5.536,5.536,0,0,0,.4,2.359,6.651,6.651,0,0,0,.8,1.157c3.145,4.03,4.725,9.092,7.788,13.187.272.361.769.831.616,1.256a3.069,3.069,0,0,0-.146.34.68.68,0,0,0,.225.6,1.454,1.454,0,0,1,.371.541c.058.215-.085.494-.306.477a4.554,4.554,0,0,0,2.563,2.338,10.671,10.671,0,0,0,5.722,1.406,13.062,13.062,0,0,0,.681-4.684,12.156,12.156,0,0,0-1.141-3.322l-1.331-2.907a43.3,43.3,0,0,0-3.857-7.2,10.832,10.832,0,0,1-1.426-2.3c-.405-1.048-1.518-1.787-2.192-2.689a16.687,16.687,0,0,0-3.384-3.707A3.071,3.071,0,0,0,853.663,506.525Z" transform="translate(1215.925 -857.685)" fill="#2a2ac0"/>
        <path id="Path_169" data-name="Path 169" d="M839.648,419.383a7.88,7.88,0,0,0-2.785.586,2.679,2.679,0,0,0-1.617,2.185,12.967,12.967,0,0,1,.133,1.654c-.119.912-.967,1.528-1.4,2.335-.762,1.4-.17,3.186.817,4.425s2.325,2.192,3.339,3.424a8.851,8.851,0,0,1,1.845,7.121,5.65,5.65,0,0,0-.18,1.487,4.274,4.274,0,0,0,1.28,2.311,106.788,106.788,0,0,1,8.074,10.743,29.033,29.033,0,0,1,1.988,3.4,20.631,20.631,0,0,0,1.824,3.6,9.5,9.5,0,0,0,2.679,2.3,18.918,18.918,0,0,0,8.578,2.767l-1.753-4.347a4.993,4.993,0,0,1-.528-2.413c.194-1.566,1.774-2.594,2.287-4.085a4.955,4.955,0,0,0-.092-3c-.62-2.2-1.859-4.183-2.526-6.372a12.935,12.935,0,0,1-.381-5.926,9.16,9.16,0,0,0,.276-2.621c-.323-2.662-3.445-3.935-4.888-6.192a13.376,13.376,0,0,1-1.426-4.932,15.566,15.566,0,0,0-2.819-6.92,8.124,8.124,0,0,0-6.467-3.3,13.072,13.072,0,0,0-3.887.974l-3.281,1.195" transform="translate(1225.942 -799.05)" fill="#2f2e41"/>
        <g id="Group_17" data-name="Group 17" transform="translate(2060.581 -375.103)" opacity="0.1">
            <path id="Path_170" data-name="Path 170" d="M893.951,437.214a15.748,15.748,0,0,0,1.174,4.5c-.1-.531-.18-1.065-.279-1.59a19.819,19.819,0,0,0-1.1-3.9C893.835,436.55,893.893,436.88,893.951,437.214Z" transform="translate(-873.295 -436.22)"/>
            <path id="Path_171" data-name="Path 171" d="M911.732,476.116a13,13,0,0,0,.381,5.93,15.25,15.25,0,0,0,.558,1.532,12.954,12.954,0,0,1-.044-4.554,9.16,9.16,0,0,0,.276-2.621,4.087,4.087,0,0,0-.885-2.042C911.967,474.952,911.831,475.534,911.732,476.116Z" transform="translate(-885.038 -461.377)"/>
            <path id="Path_172" data-name="Path 172" d="M917.21,520.549a16.412,16.412,0,0,0-.681-1.879,4.173,4.173,0,0,1-.129,1.967c-.514,1.488-2.1,2.519-2.288,4.085a4.956,4.956,0,0,0,.528,2.413c.116.289.232.582.34.871a2.829,2.829,0,0,1,0-.378c.194-1.566,1.774-2.594,2.288-4.085A4.756,4.756,0,0,0,917.21,520.549Z" transform="translate(-886.713 -490.605)"/>
            <path id="Path_173" data-name="Path 173" d="M866.693,508.623a9.529,9.529,0,0,1-2.679-2.3,20.545,20.545,0,0,1-1.828-3.6,28.711,28.711,0,0,0-1.988-3.4,106.963,106.963,0,0,0-8.071-10.746c-.106-.119-.208-.242-.31-.364a3.49,3.49,0,0,0-.078.96,4.274,4.274,0,0,0,1.28,2.311,106.773,106.773,0,0,1,8.074,10.743,29.028,29.028,0,0,1,1.988,3.4,20.658,20.658,0,0,0,1.824,3.6,9.5,9.5,0,0,0,2.679,2.3,18.918,18.918,0,0,0,8.578,2.767l-1.192-2.927A18.937,18.937,0,0,1,866.693,508.623Z" transform="translate(-845.581 -470.513)"/>
            <path id="Path_174" data-name="Path 174" d="M837.256,449.9c-1.021-1.232-2.352-2.168-3.339-3.421-.089-.116-.174-.235-.259-.361a4.956,4.956,0,0,0,1.154,3.264c.987,1.256,2.325,2.192,3.339,3.424a8.516,8.516,0,0,1,1.021,1.552,8.851,8.851,0,0,0-1.916-4.459Z" transform="translate(-833.658 -442.75)"/>
        </g>
        <path id="Path_175" data-name="Path 175" d="M393.6,349.019l-2.468-2.482a1.311,1.311,0,0,0-1.862,0l-15.5,15.355-6.556-6.6a1.307,1.307,0,0,0-1.848,0l-2.5,2.468a1.324,1.324,0,0,0,0,1.862l9.956,10.031a1.321,1.321,0,0,0,1.859,0L393.6,350.881a1.311,1.311,0,0,0,0-1.862Z" transform="translate(1537.711 -751.912)" fill="#3acc6c"/>
        <path id="Path_176" data-name="Path 176" d="M594.6,349.019l-2.468-2.481a1.31,1.31,0,0,0-1.862,0l-15.5,15.355-6.556-6.6a1.307,1.307,0,0,0-1.848,0l-2.5,2.468a1.324,1.324,0,0,0,0,1.862l9.957,10.031a1.321,1.321,0,0,0,1.859,0L594.6,350.881a1.311,1.311,0,0,0,0-1.862Z" transform="translate(1405.13 -751.912)" fill="#3acc6c"/>
    </g>
</svg>